<svg width="155" height="33" viewBox="0 0 155 33" fill="none" xmlns="http://www.w3.org/2000/svg">
<path d="M97.6433 11.5596V27.3778C97.6433 28.1527 98.2373 28.7517 99.007 28.7517C99.7748 28.7517 100.334 28.1527 100.334 27.3778V11.5596C100.334 10.7847 99.7404 10.1857 98.9727 10.1857C98.2373 10.1857 97.6433 10.8215 97.6433 11.5596ZM15.5044 19.5229C15.5044 23.9288 12.6335 26.5355 9.13215 26.5355C5.77022 26.5355 2.58609 23.7161 2.58609 19.4861V19.4166C2.58609 15.2581 5.77022 12.4019 9.13215 12.4019C12.5628 12.4019 15.5044 15.1518 15.5044 19.4513V19.5229ZM18.2643 19.4861V19.4166C18.2643 13.4242 13.9629 9.97511 9.6231 9.97511C6.29754 9.97511 4.162 11.8397 2.69115 14.0232V4.05426C2.69115 3.27939 2.09716 2.68036 1.32941 2.68036C0.593994 2.68036 0 3.27939 0 4.05426V27.3778C0 28.1179 0.593994 28.7517 1.36174 28.7517C2.13151 28.7517 2.68913 28.1179 2.68913 27.3778V25.0859C4.08926 27.1325 6.26118 28.9623 9.62108 28.9623C13.9993 28.9623 18.2643 25.4437 18.2643 19.4861ZM37.658 19.5576C37.658 23.3992 34.9284 26.5723 31.0069 26.5723C27.1904 26.5723 24.3194 23.3992 24.3194 19.4881V19.4186C24.3194 15.577 27.0146 12.3692 30.9362 12.3692C34.7527 12.3692 37.658 15.577 37.658 19.4902V19.5576ZM40.4178 19.4861V19.4166C40.4178 14.2706 36.4316 9.97511 31.0049 9.97511C25.5437 9.97511 21.5575 14.3401 21.5575 19.4861V19.5576C21.5575 24.7036 25.5074 28.9991 30.9341 28.9991C36.3973 28.9991 40.4178 24.6341 40.4178 19.4861ZM59.9509 19.5229C59.9509 23.9288 57.08 26.5355 53.5786 26.5355C50.2167 26.5355 47.0326 23.7161 47.0326 19.4861V19.4166C47.0326 15.2581 50.2187 12.4019 53.5786 12.4019C57.0092 12.4019 59.9509 15.1518 59.9509 19.4513V19.5229ZM62.7108 19.4861V19.4166C62.7108 13.4242 58.4094 9.97511 54.0696 9.97511C50.744 9.97511 48.6065 11.8397 47.1376 14.0232V4.05426C47.1376 3.27939 46.5436 2.68036 45.7739 2.68036C45.0405 2.68036 44.4465 3.27939 44.4465 4.05426V27.3778C44.4465 28.1179 45.0405 28.7517 45.8102 28.7517C46.578 28.7517 47.1376 28.1179 47.1376 27.3778V25.0859C48.5378 27.1325 50.7077 28.9623 54.0696 28.9623C58.4457 28.9623 62.7108 25.4437 62.7108 19.4861ZM81.9651 19.5576C81.9651 23.3992 79.2335 26.5723 75.3139 26.5723C71.4974 26.5723 68.6265 23.3992 68.6265 19.4881V19.4186C68.6265 15.577 71.3217 12.3692 75.2432 12.3692C79.0597 12.3692 81.9651 15.577 81.9651 19.4902V19.5576ZM84.7249 19.4861V19.4166C84.7249 14.2706 80.7407 9.97511 75.3139 9.97511C69.8508 9.97511 65.8646 14.3401 65.8646 19.4861V19.5576C65.8646 24.7036 69.8165 28.9991 75.2412 28.9991C80.7043 28.9991 84.7249 24.6341 84.7249 19.4861ZM91.8286 27.3778V4.05017C91.8286 3.31006 91.2346 2.67627 90.4668 2.67627C89.7334 2.67627 89.1395 3.31006 89.1395 4.05017V27.3778C89.1395 28.1527 89.7334 28.7517 90.5032 28.7517C91.271 28.7517 91.8286 28.1527 91.8286 27.3778ZM100.579 5.10922V4.65125C100.579 3.77212 99.8798 3.20784 98.9727 3.20784C98.0978 3.20784 97.3988 3.77007 97.3988 4.65125V5.10922C97.3988 5.95359 98.0978 6.55263 98.9727 6.55263C99.8798 6.55263 100.579 5.95359 100.579 5.10922Z" fill="#DA251E"/>
<path d="M146.902 20.7352C147.244 19.4103 147.425 18.0221 147.425 16.591C147.425 7.52774 140.164 0.181885 131.208 0.181885C122.251 0.181885 114.992 7.52774 114.992 16.591C114.992 25.6542 122.251 33.0001 131.208 33.0001C135.721 33.0001 139.805 31.1334 142.742 28.1219C142.641 27.6701 142.583 27.2019 142.583 26.7194C142.583 23.9164 144.397 21.5448 146.902 20.7352Z" fill="#DA251E"/>
<path d="M155 26.7173C155 23.2478 152.222 20.4346 148.794 20.4346C145.365 20.4346 142.585 23.2478 142.585 26.7173C142.585 30.1868 145.365 33 148.794 33C152.22 33 155 30.1868 155 26.7173Z" fill="#5BBDB5"/>
</svg>
