<svg width="134" height="24" viewBox="0 0 134 24" fill="none" xmlns="http://www.w3.org/2000/svg">
<path d="M46.9652 0.304199H20.5264V2.68156H46.9652V0.304199Z" fill="#DA251E"/>
<path d="M46.965 21.6978H0.00244141V24.0751H46.965V21.6978Z" fill="#DA251E"/>
<path d="M46.965 16.3481H0.00244141V18.7228H46.965V16.3481Z" fill="#DA251E"/>
<path d="M46.9652 11.001H20.5264V13.373H46.9652V11.001Z" fill="#DA251E"/>
<path d="M46.9652 5.66455H20.5264V8.04191H46.9652V5.66455Z" fill="#DA251E"/>
<path d="M10.0166 12.1988C10.0166 13.0233 9.35502 13.6903 8.54314 13.6903C7.72071 13.6903 7.05908 13.0233 7.05908 12.1988C7.05908 11.369 7.72071 10.7046 8.54314 10.7046C9.35765 10.7046 10.0166 11.369 10.0166 12.1988Z" fill="#304981"/>
<path d="M10.0166 6.85187C10.0166 7.67901 9.35502 8.34873 8.54314 8.34873C7.72071 8.34873 7.05908 7.67901 7.05908 6.85187C7.05908 6.0274 7.72071 5.36035 8.54314 5.36035C9.35765 5.36035 10.0166 6.0274 10.0166 6.85187Z" fill="#304981"/>
<path d="M10.0166 1.49152C10.0166 2.31599 9.35502 2.98571 8.54314 2.98571C7.72071 2.98571 7.05908 2.31599 7.05908 1.49152C7.06172 0.667048 7.72335 0 8.54577 0C9.35765 0 10.0166 0.667048 10.0166 1.49152Z" fill="#304981"/>
<path d="M2.94702 12.1988C2.94702 13.0233 2.2933 13.6903 1.47351 13.6903C0.653723 13.6903 0 13.0233 0 12.1988C0 11.369 0.656359 10.7046 1.47351 10.7046C2.29067 10.7046 2.94702 11.369 2.94702 12.1988Z" fill="#304981"/>
<path d="M2.94702 6.85187C2.94702 7.67901 2.2933 8.34873 1.47351 8.34873C0.653723 8.34873 0 7.67901 0 6.85187C0 6.0274 0.656359 5.36035 1.47351 5.36035C2.29067 5.36035 2.94702 6.0274 2.94702 6.85187Z" fill="#304981"/>
<path d="M2.94702 1.49152C2.94702 2.31599 2.2933 2.98571 1.47351 2.98571C0.653723 2.98571 0 2.31599 0 1.49152C0 0.667048 0.656359 0 1.47351 0C2.29067 0 2.94702 0.667048 2.94702 1.49152Z" fill="#304981"/>
<path d="M17.0153 12.1988C17.0153 13.0233 16.3537 13.6903 15.5391 13.6903C14.7246 13.6903 14.063 13.0233 14.063 12.1988C14.063 11.369 14.7246 10.7046 15.5391 10.7046C16.3537 10.7046 17.0153 11.369 17.0153 12.1988Z" fill="#304981"/>
<path d="M17.0153 6.85187C17.0153 7.67901 16.3537 8.34873 15.5391 8.34873C14.7246 8.34873 14.063 7.67901 14.063 6.85187C14.063 6.0274 14.7246 5.36035 15.5391 5.36035C16.3537 5.36035 17.0153 6.0274 17.0153 6.85187Z" fill="#304981"/>
<path d="M17.0153 1.49152C17.0153 2.31599 16.3537 2.98571 15.5391 2.98571C14.7246 2.98571 14.063 2.31599 14.063 1.49152C14.063 0.66438 14.7246 0 15.5391 0C16.3537 0 17.0153 0.667048 17.0153 1.49152Z" fill="#304981"/>
<path d="M58.7402 13.3596H62.2724L64.7239 20.3663H64.7555L67.2096 13.3596H70.7339V24.1098H68.3932V15.8624H68.3616L65.5701 24.1098H63.7908L61.1021 15.8624H61.0757V24.1098H58.7402V13.3596Z" fill="#304981"/>
<path d="M77.6456 16.4814L76.3619 19.8246H78.9531L77.6456 16.4814ZM76.7468 13.3596H78.6789L83.3024 24.1098H80.6586L79.7465 21.8285H75.6212L74.7408 24.1098H72.1602L76.7468 13.3596Z" fill="#304981"/>
<path d="M63.7985 9.10654C65.7992 9.10654 67.0988 7.64704 67.0988 5.64589C67.0988 3.64475 65.7992 2.18525 63.7985 2.18525C61.8057 2.18525 60.4982 3.64475 60.4982 5.64589C60.4982 7.64704 61.8057 9.10654 63.7985 9.10654ZM63.7985 0C67.1146 0 69.5291 2.19859 69.5291 5.64589C69.5291 9.0932 67.1146 11.2998 63.7985 11.2998C60.4798 11.2998 58.0679 9.0932 58.0679 5.64589C58.0679 2.19859 60.4798 0 63.7985 0Z" fill="#304981"/>
<path d="M73.8179 4.72274H75.1939C76.0479 4.72274 77.1577 4.69072 77.1577 3.52206C77.1577 2.44144 76.1982 2.27334 75.3441 2.27334H73.8153V4.72274H73.8179ZM71.4719 0.269531H75.5866C77.756 0.269531 79.588 1.02997 79.588 3.5354C79.588 5.04026 78.7973 6.20892 77.2921 6.48108L79.994 11.0197H77.1893L74.9672 6.72389H73.8153V11.0197H71.4692V0.269531H71.4719Z" fill="#304981"/>
<path d="M83.8663 0.269531H81.5229V11.0197H83.8663V0.269531Z" fill="#304981"/>
<path d="M95.9658 10.2592C94.5845 10.9903 93.0715 11.2998 91.5136 11.2998C88.1976 11.2998 85.7856 9.0932 85.7856 5.64589C85.7856 2.19859 88.2002 0 91.5136 0C93.1928 0 94.6742 0.378883 95.7444 1.38212L94.0969 3.20183C93.4643 2.52945 92.6998 2.18525 91.5163 2.18525C89.5208 2.18525 88.2107 3.64475 88.2107 5.64589C88.2107 7.6497 89.5208 9.10654 91.5163 9.10654C92.5364 9.10654 93.285 8.82104 93.7173 8.5729V6.82523H91.8141V4.64532H95.9684V10.2592H95.9658Z" fill="#304981"/>
<path d="M100.692 0.269531H98.3481V11.0197H100.692V0.269531Z" fill="#304981"/>
<path d="M103.175 0.269531H106.356L110.877 7.7378H110.903V0.269531H113.247V11.0197H110.186L105.547 3.36463H105.518V11.0197H103.175V0.269531Z" fill="#304981"/>
<path d="M120.156 3.39398L118.869 6.73989H121.466L120.156 3.39398ZM119.257 0.269531H121.192L125.807 11.0197H123.171L122.257 8.74637H118.129L117.246 11.0197H114.665L119.257 0.269531Z" fill="#304981"/>
<path d="M127.323 0.269531H129.659V8.83709H134V11.0197H127.323V0.269531Z" fill="#304981"/>
<path d="M87.0637 17.8048H88.4397C89.299 17.8048 90.4061 17.7781 90.4061 16.6068C90.4061 15.5342 89.4466 15.3634 88.5926 15.3634H87.0611V17.8048H87.0637ZM84.7256 13.3596H88.8351C91.015 13.3596 92.8365 14.112 92.8365 16.6228C92.8365 18.125 92.0404 19.2937 90.5485 19.5685L93.2451 24.1098H90.443L88.2209 19.8113H87.0611V24.1098H84.7256V13.3596Z" fill="#304981"/>
<path d="M97.1123 13.3596H94.7769V24.1098H97.1123V13.3596Z" fill="#304981"/>
<path d="M99.603 13.3596H102.785L107.297 20.8306H107.319V13.3596H109.667V24.1098H106.607L101.975 16.4547H101.944V24.1098H99.603V13.3596Z" fill="#304981"/>
<path d="M112.279 13.3596H119.491V15.5449H114.612V17.546H119.217V19.7339H114.612V21.9192H119.76V24.1098H112.279V13.3596Z" fill="#304981"/>
<path d="M127.247 15.9824C126.872 15.4994 126.121 15.2673 125.549 15.2673C124.887 15.2673 123.975 15.5715 123.975 16.3826C123.975 18.333 128.857 17.079 128.857 20.8411C128.857 23.2398 126.957 24.3765 124.769 24.3765C123.406 24.3765 122.207 23.9709 121.2 23.0317L122.866 21.1773C123.348 21.8124 124.128 22.1939 124.903 22.1939C125.67 22.1939 126.522 21.8284 126.522 21.0653C126.522 19.0988 121.542 20.1581 121.542 16.5774C121.542 14.2827 123.506 13.082 125.597 13.082C126.793 13.082 127.94 13.4049 128.844 14.208L127.247 15.9824Z" fill="#304981"/>
</svg>
