<svg width="199" height="94" viewBox="0 0 199 94" fill="none" xmlns="http://www.w3.org/2000/svg">
<path d="M114.276 0.99355C106.828 -4.02934 84.6325 10.3499 69.3845 35.63C62.1118 47.6858 56.9604 58.6628 54.4088 69.201C54.4088 69.201 51.4181 82.9311 56.8945 90.9758C53.1528 77.2949 73.6532 41.9691 73.6532 41.9691C86.0642 21.2866 100.592 7.99963 109.547 7.49824C109.547 7.49824 114.887 6.85359 117.838 11.1736C117.939 6.28057 116.793 2.69023 114.276 0.99355Z" fill="#81F28D"/>
<path d="M72.1164 93.5858C83.4953 91.3027 97.8122 80.7152 107.865 65.5615C117.808 50.5644 122.564 30.549 118.387 18.999C118.73 21.8015 118.488 25.732 117.215 31.2429C116.508 34.2915 112.735 53.9533 97.698 71.0813C97.698 71.0813 86.9735 84.3279 71.2293 93.3485C71.2293 93.3485 71.1853 93.3754 71.1502 93.4112C71.0887 93.4694 71.0624 93.5858 71.2249 93.6351C71.4401 93.6888 72.1164 93.5858 72.1164 93.5858Z" fill="#81F28D"/>
<path d="M110.723 87.7534C112.076 88.8995 113.745 89.4725 115.69 89.4725C118.585 89.4725 120.381 88.0175 120.381 85.6717C120.381 84.1317 119.415 82.2202 116.687 81.9068C116.217 81.8531 115.765 81.7949 115.295 81.7233C114.36 81.5845 113.798 81.1323 113.798 80.5145C113.798 79.4894 114.707 79.1268 115.563 79.1268C116.529 79.1268 117.535 79.4312 118.479 80.0042L118.73 80.1564L118.901 79.9191L119.95 78.4239L120.148 78.1419L119.858 77.9583C118.51 77.1033 117.091 76.669 115.647 76.669C112.99 76.669 111.268 78.1643 111.268 80.4832C111.268 82.4619 112.643 83.8721 114.856 84.1631L115.581 84.2616L116.507 84.3824C117.122 84.4541 117.856 84.7361 117.856 85.6717C117.856 86.4999 117.03 87.0147 115.704 87.0147C114.518 87.0147 113.297 86.6029 112.362 85.8866L112.133 85.712L111.936 85.9224L110.693 87.2878L110.464 87.5385L110.723 87.7534ZM126.854 89.374H126.538H124.645H124.329V89.0517V79.0283H121.233H120.917V78.7015V77.0898V76.7675H121.233H129.95H130.267V77.0898V78.7015V79.0283H129.95H126.854V89.0517V89.374ZM130.925 83.0663C130.925 85.9851 131.075 86.397 131.509 87.158C132.146 88.2772 133.582 89.468 135.69 89.468C137.798 89.468 139.226 88.2772 139.867 87.158C140.302 86.397 140.451 85.9851 140.451 83.0663C140.451 80.1474 140.302 79.7356 139.867 78.9745C139.226 77.8554 137.794 76.6646 135.69 76.6646C133.582 76.6646 132.151 77.8598 131.509 78.9745C131.079 79.7401 130.925 80.1519 130.925 83.0663ZM133.455 83.0663C133.455 80.6802 133.591 80.4026 134.013 79.8788C134.241 79.5968 134.768 79.1223 135.695 79.1223C136.617 79.1223 137.144 79.5968 137.372 79.8788C137.798 80.4026 137.93 80.6802 137.93 83.0663C137.93 85.4524 137.798 85.7344 137.372 86.2537C137.14 86.5357 136.617 87.0103 135.695 87.0103C134.772 87.0103 134.241 86.5357 134.013 86.2537C133.587 85.7344 133.455 85.4524 133.455 83.0663ZM151.764 89.374H151.224H148.984H148.791L148.703 89.1994L146.222 84.2705H144.316V89.0561V89.3785H143.999H142.111H141.79V89.0561V77.0943V76.772H142.111H146.977C148.141 76.772 149.01 77.0451 149.713 77.6315C150.578 78.3388 151.074 79.364 151.074 80.4384C151.074 81.9963 150.205 83.2901 148.791 83.9079L151.505 88.8995L151.764 89.374ZM148.65 80.434C148.65 79.9505 148.475 79.561 148.154 79.3372C147.895 79.1491 147.592 79.0283 146.955 79.0283H144.316V82.0098H146.85C148.176 82.0053 148.65 81.1592 148.65 80.434ZM161.224 89.374H160.907H152.941H152.625V89.0517V77.0898V76.7675H152.941H160.907H161.224V77.0898V78.8044V79.1268H160.907H155.154V81.8889H160.016H160.336V82.2112V83.8228V84.1496H160.016H155.154V87.0147H160.907H161.224V87.3371V89.0517V89.374Z" fill="#F7DE00"/>
<path d="M198.755 27.456C198.755 29.184 197.389 30.5539 195.659 30.5539C193.929 30.5539 192.545 29.184 192.545 27.456C192.545 25.728 193.924 24.376 195.677 24.376C197.394 24.3715 198.755 25.7235 198.755 27.456ZM193.318 27.456C193.318 28.8259 194.333 29.9182 195.677 29.9182C196.985 29.9361 197.978 28.8259 197.978 27.4739C197.978 26.104 196.981 24.9938 195.637 24.9938C194.333 24.9938 193.318 26.0995 193.318 27.456ZM195.18 29.0497H194.478V25.9697C194.754 25.9339 195.141 25.8757 195.642 25.8757C196.212 25.8757 196.467 25.9697 196.674 26.1219C196.858 26.2517 196.985 26.48 196.985 26.78C196.985 27.156 196.709 27.3978 196.362 27.5097V27.55C196.656 27.644 196.805 27.8902 196.898 28.3021C196.99 28.7721 197.064 28.9422 197.117 29.0542H196.379C196.287 28.9422 196.23 28.6781 196.138 28.3021C196.085 27.9842 195.896 27.832 195.51 27.832H195.18V29.0497ZM195.198 27.3217H195.532C195.918 27.3217 196.23 27.1918 196.23 26.8695C196.23 26.5875 196.028 26.3995 195.584 26.3995C195.4 26.3995 195.273 26.4174 195.198 26.4353V27.3217Z" fill="white"/>
<path d="M179.651 25.8658L188.132 24.8675V71.609L179.651 72.0074V25.8658ZM171.36 38.4499L176.564 31.6542C171.553 27.0611 165.769 24.666 159.212 24.666C156.129 24.666 153.24 25.2659 150.35 26.4612C147.649 27.6609 145.141 29.2591 143.024 31.4617C138.396 36.0503 135.888 41.8477 135.888 48.4375C135.888 55.2242 138.202 61.0215 142.634 65.6147C147.262 70.2078 152.849 72.4014 159.208 72.4014C162.488 72.4014 165.958 71.8105 169.616 70.4137C173.279 69.017 175.462 67.3293 177.324 65.6191V44.6501H158.628L155.927 53.0351H168.65V61.026C167.539 62.3287 164.522 64.0209 159.203 64.0209C155.545 64.0209 152.26 62.8257 149.375 60.2247C146.292 57.2297 144.75 53.4335 144.75 49.2388C144.75 44.8426 146.103 41.0464 148.8 37.8545C151.496 34.6581 154.97 33.0599 159.015 33.0599C161.522 33.0599 163.832 33.6598 165.954 34.8595C167.122 35.258 168.856 36.6592 171.36 38.4499ZM125.098 25.8658V72.0074L133.582 71.609V24.8675L125.098 25.8658ZM113.727 24.666L99.2744 55.4301L85.0057 24.666H84.8125L76.7186 71.609L84.8125 72.6073L88.0887 49.4358H88.2819L99.27 72.6073L110.254 49.4358L113.723 72.6073L122.208 71.609L113.727 24.666ZM74.0177 71.609V24.8675L65.5373 25.8658V72.0074L74.0177 71.609ZM60.3376 39.8466C60.3376 42.649 59.3714 45.2455 58.0231 47.4391C56.4816 49.4358 54.3604 51.0295 51.8528 51.8308L63.8026 70.2078L54.5493 72.6073L39.5121 48.6389V71.609L31.0274 72.0074V25.8658H45.1027C49.5384 25.8658 53.201 27.0611 55.8932 29.2636C58.7917 31.6542 60.3376 35.258 60.3376 39.8466ZM42.7927 34.2552H39.5165V46.4408H42.5995C47.9969 46.4408 50.6934 44.4442 50.6934 40.254C50.6934 37.653 49.9204 36.0548 48.3833 35.258C47.2239 34.6536 45.296 34.2552 42.7927 34.2552ZM1.34825 25.8658H14.2642C18.8931 25.6688 22.5514 27.464 25.2523 30.8573C27.3735 33.4538 28.5285 36.6547 28.5285 40.2495C28.5285 44.8382 27.1802 48.4375 24.2861 51.2309C21.5896 53.8274 18.1158 55.2242 13.6845 55.2242L10.2151 55.0272V71.609L1.73472 72.0074V30.4634H0L1.34825 25.8658ZM12.143 34.2552H10.2151V46.8348H12.143C17.5404 46.8348 20.0481 44.6457 20.0481 40.4465C20.0481 36.2563 17.5404 34.2552 12.143 34.2552Z" fill="white"/>
</svg>
