<svg width="82" height="39" viewBox="0 0 82 39" fill="none" xmlns="http://www.w3.org/2000/svg">
<g clip-path="url(#clip0_76_129)">
<path d="M47.1471 0.413946C44.0741 -1.67794 34.9169 4.31059 28.6261 14.839C25.6256 19.8599 23.5003 24.4314 22.4476 28.8203C22.4476 28.8203 21.2137 34.5385 23.4731 37.8888C21.9294 32.1912 30.3872 17.479 30.3872 17.479C35.5076 8.86538 41.5013 3.33177 45.1957 3.12295C45.1957 3.12295 47.3989 2.85448 48.6165 4.65364C48.6582 2.61583 48.1853 1.12056 47.1471 0.413946Z" fill="#BCCF00"/>
<path d="M29.7532 38.9757C34.4478 38.0249 40.3545 33.6155 44.5019 27.3045C48.604 21.0586 50.5662 12.7228 48.8431 7.9126C48.9845 9.07973 48.8848 10.7167 48.3594 13.0118C48.0677 14.2815 46.5113 22.47 40.3074 29.6033C40.3074 29.6033 35.8828 35.1201 29.3872 38.8769C29.3872 38.8769 29.3691 38.8881 29.3546 38.903C29.3293 38.9273 29.3184 38.9757 29.3854 38.9963C29.4742 39.0186 29.7532 38.9757 29.7532 38.9757Z" fill="#BCCF00"/>
<path d="M45.6811 36.5464C46.2392 37.0237 46.9277 37.2623 47.7303 37.2623C48.9244 37.2623 49.6654 36.6564 49.6654 35.6794C49.6654 35.0381 49.2668 34.242 48.1416 34.1115C47.9478 34.0891 47.7612 34.0649 47.5673 34.035C47.1814 33.9772 46.9494 33.7889 46.9494 33.5316C46.9494 33.1047 47.3245 32.9537 47.6778 32.9537C48.0764 32.9537 48.4913 33.0804 48.8809 33.3191L48.9842 33.3825L49.0548 33.2837L49.4879 32.6609L49.5694 32.5435L49.4498 32.467C48.8936 32.1109 48.3083 31.9301 47.7122 31.9301C46.616 31.9301 45.9058 32.5528 45.9058 33.5186C45.9058 34.3426 46.4729 34.9299 47.3861 35.0511L47.6851 35.0921L48.0674 35.1425C48.321 35.1723 48.6236 35.2898 48.6236 35.6794C48.6236 36.0244 48.283 36.2388 47.7358 36.2388C47.2466 36.2388 46.7429 36.0672 46.3569 35.7689L46.2627 35.6962L46.1812 35.7838L45.6684 36.3525L45.5742 36.4569L45.6811 36.5464ZM52.3361 37.2213H52.2057H51.4248H51.2943V37.0871V32.9126H50.0169H49.8865V32.7765V32.1053V31.9711H50.0169H53.6135H53.744V32.1053V32.7765V32.9126H53.6135H52.3361V37.0871V37.2213V37.2213ZM54.0157 34.5943C54.0157 35.81 54.0773 35.9815 54.2567 36.2984C54.5194 36.7645 55.1119 37.2605 55.9816 37.2605C56.8513 37.2605 57.4402 36.7645 57.7047 36.2984C57.8841 35.9815 57.9457 35.81 57.9457 34.5943C57.9457 33.3787 57.8841 33.2072 57.7047 32.8903C57.4402 32.4242 56.8495 31.9282 55.9816 31.9282C55.1119 31.9282 54.5213 32.426 54.2567 32.8903C54.0792 33.2091 54.0157 33.3806 54.0157 34.5943ZM55.0594 34.5943C55.0594 33.6006 55.1155 33.485 55.2895 33.2669C55.3837 33.1494 55.6011 32.9518 55.9834 32.9518C56.3639 32.9518 56.5814 33.1494 56.6756 33.2669C56.8513 33.485 56.9057 33.6006 56.9057 34.5943C56.9057 35.5881 56.8513 35.7055 56.6756 35.9218C56.5795 36.0393 56.3639 36.2369 55.9834 36.2369C55.6029 36.2369 55.3837 36.0393 55.2895 35.9218C55.1137 35.7055 55.0594 35.5881 55.0594 34.5943ZM62.6131 37.2213H62.3902H61.4662H61.3864L61.3502 37.1486L60.3265 35.0959H59.5401V37.0889V37.2232H59.4097H58.6306H58.4983V37.0889V32.1072V31.973H58.6306H60.6381C61.1183 31.973 61.477 32.0867 61.7669 32.3309C62.1239 32.6255 62.3286 33.0525 62.3286 33.4999C62.3286 34.1487 61.9699 34.6876 61.3864 34.9449L62.5062 37.0237L62.6131 37.2213ZM61.3285 33.4981C61.3285 33.2967 61.256 33.1345 61.1237 33.0413C61.0168 32.963 60.8918 32.9126 60.6291 32.9126H59.5401V34.1543H60.5856C61.1328 34.1525 61.3285 33.8001 61.3285 33.4981ZM66.5159 37.2213H66.3854H63.0987H62.9682V37.0871V32.1053V31.9711H63.0987H66.3854H66.5159V32.1053V32.8194V32.9537H66.3854H64.0119V34.104H66.0176H66.1499V34.2382V34.9094V35.0455H66.0176H64.0119V36.2388H66.3854H66.5159V36.373V37.0871V37.2213Z" fill="#F7A600"/>
<path d="M82 11.4346C82 12.1542 81.4365 12.7248 80.7226 12.7248C80.0087 12.7248 79.438 12.1542 79.438 11.4346C79.438 10.7149 80.0069 10.1519 80.7299 10.1519C81.4383 10.15 82 10.7131 82 11.4346ZM79.7569 11.4346C79.7569 12.0051 80.1754 12.46 80.7299 12.46C81.2698 12.4675 81.6793 12.0051 81.6793 11.442C81.6793 10.8715 81.268 10.4092 80.7136 10.4092C80.1754 10.4092 79.7569 10.8697 79.7569 11.4346ZM80.5251 12.0983H80.2352V10.8156C80.3494 10.8007 80.5088 10.7764 80.7154 10.7764C80.9509 10.7764 81.056 10.8156 81.1412 10.879C81.2173 10.9331 81.2698 11.0281 81.2698 11.1531C81.2698 11.3097 81.1557 11.4103 81.0125 11.457V11.4737C81.1339 11.5129 81.1955 11.6154 81.2336 11.787C81.2716 11.9827 81.3024 12.0536 81.3242 12.1002H81.0198C80.9817 12.0536 80.9582 11.9436 80.9201 11.787C80.8984 11.6546 80.8205 11.5912 80.661 11.5912H80.5251V12.0983V12.0983ZM80.5324 11.3786H80.6701C80.8295 11.3786 80.9582 11.3246 80.9582 11.1903C80.9582 11.0729 80.8748 10.9946 80.6918 10.9946C80.6157 10.9946 80.5632 11.002 80.5324 11.0095V11.3786V11.3786Z" fill="#272E80"/>
<path d="M74.1183 10.7726L77.6171 10.3568V29.8233L74.1183 29.9892V10.7726ZM70.6975 16.0135L72.8446 13.1833C70.7772 11.2704 68.391 10.2729 65.6859 10.2729C64.4139 10.2729 63.2217 10.5228 62.0295 11.0206C60.9152 11.5202 59.8806 12.1858 59.0073 13.1031C57.0976 15.0142 56.063 17.4286 56.063 20.173C56.063 22.9995 57.0179 25.4139 58.8461 27.3268C60.7558 29.2397 63.0605 30.1533 65.6841 30.1533C67.0375 30.1533 68.4689 29.9072 69.9782 29.3255C71.4893 28.7438 72.3898 28.0409 73.158 27.3287V18.5957H65.4449L64.3306 22.0878H69.5796V25.4158C69.1212 25.9583 67.8764 26.6631 65.6823 26.6631C64.173 26.6631 62.8177 26.1653 61.6273 25.0821C60.3553 23.8348 59.7194 22.2537 59.7194 20.5068C59.7194 18.6759 60.2774 17.0949 61.3899 15.7655C62.5024 14.4343 63.9356 13.7687 65.6043 13.7687C66.6389 13.7687 67.592 14.0186 68.4671 14.5182C68.9491 14.6842 69.6648 15.2677 70.6975 16.0135ZM51.6112 10.7726V29.9892L55.1118 29.8233V10.3568L51.6112 10.7726ZM46.9203 10.2729L40.9574 23.0853L35.0706 10.2729H34.9909L31.6516 29.8233L34.9909 30.2391L36.3426 20.5888H36.4223L40.9556 30.2391L45.4871 20.5888L46.9185 30.2391L50.419 29.8233L46.9203 10.2729ZM30.5373 29.8233V10.3568L27.0386 10.7726V29.9892L30.5373 29.8233ZM24.8933 16.5952C24.8933 17.7623 24.4947 18.8437 23.9385 19.7573C23.3025 20.5888 22.4274 21.2525 21.3928 21.5863L26.3229 29.2397L22.5053 30.2391L16.3014 20.2569V29.8233L12.8009 29.9892V10.7726H18.6079C20.4379 10.7726 21.949 11.2704 23.0597 12.1877C24.2556 13.1833 24.8933 14.6842 24.8933 16.5952ZM17.6549 14.2665H16.3032V19.3415H17.5752C19.802 19.3415 20.9145 18.51 20.9145 16.7649C20.9145 15.6816 20.5956 15.016 19.9614 14.6842C19.4831 14.4325 18.6877 14.2665 17.6549 14.2665ZM0.556245 10.7726H5.88497C7.79468 10.6906 9.30397 11.4382 10.4183 12.8514C11.2934 13.9328 11.7699 15.2659 11.7699 16.763C11.7699 18.674 11.2137 20.173 10.0197 21.3364C8.90717 22.4178 7.47398 22.9995 5.6458 22.9995L4.21442 22.9175V29.8233L0.71569 29.9892V12.6874H0L0.556245 10.7726ZM5.00983 14.2665H4.21442V19.5056H5.00983C7.23663 19.5056 8.27121 18.5939 8.27121 16.845C8.27121 15.0999 7.23663 14.2665 5.00983 14.2665Z" fill="#272E80"/>
</g>
<defs>
<clipPath id="clip0_76_129">
<rect width="82" height="39" fill="white"/>
</clipPath>
</defs>
</svg>
