<svg width="677" height="436" viewBox="0 0 677 436" fill="none" xmlns="http://www.w3.org/2000/svg">
<path d="M387.153 -132C283.14 -98.9444 177.965 -75.2583 76.801 -31.6715C49.7013 -19.9784 23.8387 -7.04849 -5.73372e-08 7.83025L0 9.14197C24.1385 -5.99912 50.4135 -19.1913 77.9254 -31.0343C179.689 -74.8835 285.539 -98.6071 390.152 -131.962L387.153 -131.962L387.153 -132Z" fill="url(#paint0_linear_15_3036)"/>
<path d="M420.288 -131.998C309.603 -95.3072 197.194 -71.5087 89.3579 -25.0361C57.4231 -11.2442 27.1375 4.23422 -0.0371094 22.5984L-0.0371094 23.9851C27.4373 5.28361 58.0977 -10.4571 90.4823 -24.3989C198.918 -71.1339 311.927 -94.9324 423.212 -131.998L420.288 -131.998Z" fill="url(#paint1_linear_15_3036)"/>
<path d="M452.372 -131.999C335.428 -91.4105 216.16 -67.5745 101.989 -18.366C64.9941 -2.40036 30.2856 15.8514 -6.38914e-08 38.1882L0 39.6499C30.548 16.9383 65.6688 -1.61334 103.151 -17.7663C217.884 -67.1997 337.789 -91.0357 455.296 -131.999L452.372 -131.999Z" fill="url(#paint2_linear_15_3036)"/>
<path d="M483.595 -132.001C360.728 -87.2525 234.826 -63.5664 114.583 -11.7345C72.378 6.47981 33.0967 27.6923 -6.55287e-08 54.564L0 56.0631C33.3216 28.7417 73.0152 7.26686 115.745 -11.1348C236.512 -63.1916 363.015 -86.8777 486.406 -132.001L483.595 -132.001Z" fill="url(#paint3_linear_15_3036)"/>
<path d="M514.105 -131.999C385.579 -82.8277 253.267 -59.4039 127.214 -5.06094C79.4622 15.5144 35.4956 39.9126 -7.20805e-08 72.0312L0 73.6802C35.7205 41.0744 80.0994 16.3389 128.339 -4.46131C254.916 -59.0292 387.79 -82.3779 516.767 -131.999L514.105 -131.999Z" fill="url(#paint4_linear_15_3036)"/>
<path d="M543.641 -132C409.83 -78.1445 271.408 -55.1706 139.808 1.57102C86.2465 24.6574 37.4447 52.541 -7.86335e-08 90.731L0 92.5299C37.5571 53.7403 86.8462 25.5194 140.933 2.17067C273.058 -54.7583 412.041 -77.7323 546.303 -132L543.641 -132Z" fill="url(#paint5_linear_15_3036)"/>
<path d="M4.8352 105.609C3.18598 107.446 1.57425 109.357 -8.51865e-08 111.231L0 113.18C1.94907 110.819 3.93563 108.495 5.95966 106.247C44.2664 63.7465 96.2167 33.5768 153.527 8.84139C286.551 -48.4998 426.509 -71.3239 561.633 -126.379C561.258 -126.566 560.883 -126.791 560.471 -126.979C425.348 -71.8861 285.389 -49.062 152.365 8.24173C95.0922 32.9397 43.142 63.1469 4.8352 105.609Z" fill="url(#paint6_linear_15_3036)"/>
<path d="M17.4292 112.283C11.2446 119.179 5.39743 126.599 -9.9931e-08 134.47L0 136.756C5.73477 128.248 11.9193 120.228 18.5912 112.883C56.8979 70.3826 108.848 40.2128 166.158 15.4774C299.183 -41.8638 439.141 -64.6879 574.264 -119.743C573.889 -119.93 573.515 -120.155 573.102 -120.343C437.979 -65.2875 298.021 -42.4635 164.996 14.8778C107.686 39.6132 55.736 69.7829 17.4292 112.283Z" fill="url(#paint7_linear_15_3036)"/>
<path d="M30.0232 118.916C18.6661 131.546 8.6209 146.012 -1.17951e-07 161.603L0 164.301C8.84579 147.924 19.3033 132.708 31.1852 119.553C69.4919 77.0528 121.442 46.8831 178.752 22.1476C311.777 -35.1936 451.735 -58.0176 586.858 -113.073C586.484 -113.26 586.109 -113.485 585.696 -113.672C450.573 -58.5798 310.615 -35.7558 177.591 21.548C120.28 46.246 68.33 76.4531 30.0232 118.916Z" fill="url(#paint8_linear_15_3036)"/>
<path d="M42.6172 125.586C25.1505 144.999 10.6824 168.798 -1.49077e-07 194.358L0 197.768C10.7574 171.159 25.6378 146.311 43.7792 126.185C82.0859 83.6855 134.036 53.5158 191.346 28.7804C324.371 -28.5609 464.329 -51.385 599.452 -106.44C599.077 -106.627 598.703 -106.852 598.29 -107.04C463.167 -51.9471 323.209 -29.123 190.185 28.1807C132.874 52.8787 80.9615 83.0859 42.6172 125.586Z" fill="url(#paint9_linear_15_3036)"/>
<path d="M-1.82005e-06 399.363C2.43634 413.155 5.32247 427.022 8.50845 441.001L9.52047 441.001C5.84722 424.923 2.62375 408.995 -2.08872e-06 393.217L-1.82005e-06 399.363Z" fill="url(#paint10_linear_15_3036)"/>
<path d="M55.2487 132.22C29.3485 160.965 10.0452 199.268 -2.30988e-07 238.694L0 243.979C9.6704 202.903 29.461 162.727 56.3732 132.819C94.6799 90.3192 146.63 60.1495 203.94 35.4141C336.965 -21.9272 476.923 -44.7512 612.046 -99.8063C611.671 -99.9937 611.297 -100.219 610.884 -100.406C475.761 -45.3134 335.803 -22.4893 202.779 34.8144C145.506 59.5499 93.5555 89.7196 55.2487 132.22Z" fill="url(#paint11_linear_15_3036)"/>
<path d="M215.411 41.4488C158.101 66.1842 106.151 96.3914 67.8441 138.854C34.0352 176.407 11.3959 230.188 6.07348 281.532C0.713537 333.252 7.42284 386.283 19.6045 441.001L20.6166 441.001C8.50983 386.471 1.87548 333.664 7.19795 282.132C12.5579 230.787 35.1596 177.006 68.9685 139.454C107.275 96.9536 159.226 66.7839 216.536 42.0485C349.56 -15.2928 489.518 -38.1168 624.642 -93.1719C624.267 -93.3593 623.892 -93.5842 623.48 -93.7716C488.394 -38.7165 348.436 -15.8549 215.411 41.4488Z" fill="url(#paint12_linear_15_3036)"/>
<path d="M228.004 48.1199C170.694 72.8553 118.744 103.063 80.4372 145.525C46.6283 183.04 23.9891 236.821 18.6666 288.166C13.5315 337.787 19.4912 388.607 30.7733 441.001L31.7854 441.001C20.6157 388.832 14.6935 338.199 19.7911 288.766C25.151 237.421 47.7528 183.64 81.5617 146.087C119.868 103.587 171.819 73.4175 229.129 48.6821C362.153 -8.65919 502.112 -31.4832 637.235 -86.5383C636.86 -86.7257 636.485 -86.9506 636.073 -87.138C500.987 -32.0454 361.029 -9.22136 228.004 48.1199Z" fill="url(#paint13_linear_15_3036)"/>
<path d="M240.598 54.7535C183.288 79.4889 131.337 109.696 93.0306 152.159C59.2592 189.674 36.6199 243.492 31.26 294.837C26.3498 342.359 31.6348 390.968 41.9799 441.001L42.9919 441.001C32.7218 391.193 27.5118 342.771 32.4219 295.437C37.7819 244.092 60.3836 190.311 94.1925 152.758C132.499 110.296 184.45 80.0886 241.76 55.3531C374.784 -1.98811 514.742 -24.8122 649.866 -79.8672C649.491 -80.0547 649.116 -80.2795 648.704 -80.4669C513.581 -25.4118 373.622 -2.58775 240.598 54.7535Z" fill="url(#paint14_linear_15_3036)"/>
<path d="M253.231 61.3871C195.92 86.1226 143.97 116.33 105.663 158.792C71.8545 196.345 49.2152 250.126 43.8553 301.471C39.17 346.894 43.7803 393.292 53.2258 441.001L54.2379 441.001C44.8673 393.516 40.332 347.306 45.0172 302.07C50.3772 250.726 72.9789 196.945 106.788 159.392C145.095 116.892 197.045 86.7222 254.355 61.9868C387.379 4.64555 527.338 -18.1785 662.461 -73.2336C662.086 -73.421 661.711 -73.6458 661.299 -73.8332C526.176 -18.7407 386.217 4.08336 253.231 61.3871Z" fill="url(#paint15_linear_15_3036)"/>
<path d="M265.824 68.0582C208.514 92.7936 156.564 123.001 118.257 165.463C84.4482 202.979 61.809 256.797 56.4865 308.142C51.9886 351.429 55.9992 395.653 64.5452 441.001L65.5572 441.001C57.0862 395.84 53.1131 351.841 57.5735 308.704C62.9334 257.359 85.5352 203.578 119.344 166.025C157.688 123.563 209.639 93.3932 266.949 68.6578C399.973 11.3166 539.931 -11.5075 675.055 -66.5625C674.68 -66.7499 674.305 -66.9748 673.893 -67.1622C538.807 -12.1071 398.849 10.7169 265.824 68.0582Z" fill="url(#paint16_linear_15_3036)"/>
<path d="M70.2052 315.375C75.5651 264.03 98.1668 210.249 131.976 172.696C170.283 130.197 222.233 100.027 279.543 75.2913C411.03 18.6247 549.302 -4.38671 683.001 -58.1301L683.001 -59.1795C548.965 -5.13631 410.281 17.8377 278.419 74.6917C221.108 99.4271 169.158 129.634 130.851 172.097C97.0424 209.612 74.4032 263.431 69.0807 314.775C64.8077 355.964 68.1811 397.976 75.9024 441.001L76.952 441.001C69.3056 398.164 65.9697 356.376 70.2052 315.375Z" fill="url(#paint17_linear_15_3036)"/>
<path d="M82.799 322.009C88.1589 270.664 110.761 216.883 144.57 179.33C182.914 136.868 234.864 106.66 292.174 81.9624C419.539 27.0573 553.275 3.70851 683.001 -46.5119L683.001 -47.5613C552.9 2.95896 418.752 26.3077 291.012 81.3628C233.702 106.098 181.752 136.305 143.445 178.768C109.636 216.283 86.997 270.102 81.6745 321.446C77.6264 360.461 80.4751 400.3 87.3718 441.001L88.4213 441.001C81.5995 400.487 78.7884 360.873 82.799 322.009Z" fill="url(#paint18_linear_15_3036)"/>
<path d="M95.4293 328.68C100.789 277.335 123.391 223.554 157.2 186.001C195.507 143.501 247.457 113.332 304.767 88.5961C428.009 35.4899 557.21 11.9163 683 -35.0436L683 -36.0555C556.835 11.2042 427.221 34.7403 303.605 87.9964C246.295 112.732 194.345 142.939 156.038 185.402C122.229 222.917 99.5899 276.735 94.2674 328.08C90.4442 365.033 92.7681 402.624 98.8777 441.001L99.9272 441.001C93.9301 402.811 91.6062 365.408 95.4293 328.68Z" fill="url(#paint19_linear_15_3036)"/>
<path d="M108.025 335.313C113.385 283.968 135.986 230.188 169.795 192.635C208.102 150.172 260.052 119.965 317.363 95.2296C436.481 43.8849 561.184 20.1614 683.001 -23.8003L683.001 -24.8122C560.847 19.4118 435.731 43.1353 316.238 94.63C258.89 119.365 206.978 149.573 168.671 192.035C134.862 229.551 112.223 283.369 106.9 334.714C103.264 369.493 105.139 404.91 110.461 441.001L111.511 441.001C106.263 405.097 104.426 369.905 108.025 335.313Z" fill="url(#paint20_linear_15_3036)"/>
<path d="M120.617 341.947C125.977 290.602 148.579 236.821 182.388 199.268C220.694 156.768 272.645 126.599 329.955 101.863C444.988 52.2799 565.193 28.4814 682.999 -12.6693L682.999 -13.6812C564.856 27.6944 444.238 51.4929 328.831 101.226C271.52 125.962 219.57 156.169 181.263 198.631C147.454 236.222 124.815 290.002 119.493 341.347C116.082 374.028 117.544 407.196 122.116 441.001L123.166 441.001C118.668 407.421 117.244 374.44 120.617 341.947Z" fill="url(#paint21_linear_15_3036)"/>
<path d="M133.213 348.618C138.573 297.273 161.174 243.492 194.983 205.939C233.328 163.477 285.24 133.27 342.588 108.534C453.535 60.7124 569.28 36.839 683.039 -1.68832L683.039 -2.70019C568.905 36.052 452.748 59.9254 341.464 107.897C284.153 132.633 232.203 162.84 193.896 205.302C160.05 242.855 137.411 296.673 132.088 348.018C128.902 378.525 129.989 409.482 133.85 441.001L134.937 441.001C131.114 409.707 130.102 378.938 133.213 348.618Z" fill="url(#paint22_linear_15_3036)"/>
<path d="M145.844 355.251C151.204 303.907 173.806 250.126 207.615 212.573C245.922 170.073 297.872 139.903 355.182 115.168C462.006 69.1076 573.329 45.3091 683.001 9.18037L683.001 8.20591C572.954 44.522 461.219 68.358 354.02 114.568C296.71 139.304 244.76 169.511 206.453 211.973C172.644 249.526 150.042 303.307 144.682 354.652C141.759 383.023 142.471 411.768 145.695 441.001L146.781 441.001C143.596 411.993 142.921 383.435 145.844 355.251Z" fill="url(#paint23_linear_15_3036)"/>
<path d="M158.439 361.885C163.799 310.54 186.4 256.76 220.209 219.207C258.516 176.744 310.466 146.537 367.777 121.802C470.515 77.5026 577.414 53.7791 683.002 19.8991L683.002 18.9246C577.04 52.992 469.728 76.753 366.615 121.202C309.304 145.937 257.354 176.144 219.047 218.607C185.239 256.122 162.599 309.941 157.277 361.285C154.578 387.52 154.953 414.054 157.577 441.001L158.664 441.001C156.115 414.279 155.74 387.932 158.439 361.885Z" fill="url(#paint24_linear_15_3036)"/>
<path d="M171.032 368.556C176.392 317.211 198.994 263.431 232.803 225.878C271.11 183.378 323.06 153.208 380.37 128.473C479.023 85.9351 581.499 62.3989 683.001 30.5802L683.001 29.6058C581.125 61.5744 478.273 85.1481 379.246 127.835C321.935 152.571 269.985 182.778 231.678 225.241C197.869 262.756 175.23 316.574 169.908 367.919C167.396 392.017 167.546 416.34 169.608 441.001L170.695 441.001C168.708 416.565 168.558 392.392 171.032 368.556Z" fill="url(#paint25_linear_15_3036)"/>
<path d="M183.626 375.19C188.986 323.845 211.587 270.064 245.396 232.511C283.703 190.011 335.653 159.842 392.964 135.106C487.531 94.3302 585.622 70.9814 683.001 41.1115L683.001 40.1371C585.247 70.1944 486.781 93.5806 391.839 134.469C334.529 159.204 282.579 189.412 244.272 231.874C210.463 269.39 187.824 323.208 182.501 374.553C180.215 396.477 180.14 418.627 181.677 441.001L182.801 441.001C181.302 418.814 181.377 396.889 183.626 375.19Z" fill="url(#paint26_linear_15_3036)"/>
<path d="M196.219 381.861C201.579 330.516 224.181 276.735 257.99 239.182C296.297 196.682 348.247 166.513 405.557 141.777C496.039 102.763 589.782 79.7138 682.963 51.6428L682.963 50.7059C589.407 78.9267 495.327 102.013 404.433 141.178C347.123 165.913 295.172 196.12 256.866 238.583C223.057 276.098 200.417 329.916 195.095 381.261C193.033 400.975 192.809 420.875 193.896 441.001L195.02 441.001C193.933 421.1 194.195 401.387 196.219 381.861Z" fill="url(#paint27_linear_15_3036)"/>
<path d="M208.85 388.494C214.21 337.15 236.812 283.369 270.621 245.816C308.927 203.316 360.878 173.146 418.188 148.411C504.622 111.158 593.942 88.4461 682.999 62.0241L682.999 61.0872C593.567 87.659 503.835 110.408 417.026 147.811C359.716 172.547 307.765 202.754 269.459 245.216C235.65 282.732 213.011 336.55 207.688 387.895C205.889 405.434 205.477 423.124 206.189 441.001L207.313 441.001C206.639 423.349 207.051 405.847 208.85 388.494Z" fill="url(#paint28_linear_15_3036)"/>
<path d="M221.445 395.128C226.805 343.783 249.406 290.002 283.215 252.45C321.522 209.95 373.472 179.78 430.783 155.044C513.131 119.553 598.141 97.291 683 72.4056L683 71.4687C597.766 96.5039 512.344 118.803 429.621 154.445C372.311 179.18 320.36 209.387 282.053 251.85C248.282 289.403 225.643 343.184 220.283 394.528C218.709 409.894 218.184 425.41 218.559 441.001L219.683 441.001C219.346 425.598 219.871 410.307 221.445 395.128Z" fill="url(#paint29_linear_15_3036)"/>
<path d="M295.809 259.121C334.116 216.658 386.067 186.451 443.377 161.715C521.64 127.985 602.301 106.173 683 82.7495L683 81.8125C601.926 105.386 520.89 127.236 442.252 161.116C384.942 185.851 332.992 216.058 294.685 258.521C260.876 296.036 238.237 349.855 232.914 401.199C231.528 414.354 231.003 427.659 231.078 441.001L232.202 441.001C232.127 427.846 232.689 414.766 234.001 401.799C239.399 350.454 262.001 296.636 295.809 259.121Z" fill="url(#paint30_linear_15_3036)"/>
<path d="M308.44 265.792C346.747 223.329 398.697 193.122 456.007 168.387C530.185 136.418 606.536 115.168 683.037 93.0559L683.037 92.119C606.198 114.343 529.435 135.631 454.883 167.749C397.573 192.485 345.622 222.692 307.316 265.155C273.469 302.707 250.83 356.488 245.508 407.833C244.383 418.814 243.783 429.87 243.671 441.001L244.833 441.001C244.945 430.095 245.545 419.226 246.669 408.433C251.992 357.088 274.631 303.307 308.44 265.792Z" fill="url(#paint31_linear_15_3036)"/>
<path d="M321.036 272.425C359.343 229.925 411.293 199.756 468.603 175.02C538.732 144.813 610.773 124.163 683.001 103.325L683.001 102.388C610.361 123.338 537.945 144.026 467.441 174.383C410.131 199.118 358.181 229.326 319.874 271.788C286.065 309.341 263.463 363.122 258.103 414.467C257.204 423.274 256.679 432.119 256.417 441.001L257.578 441.001C257.841 432.344 258.366 423.686 259.228 415.066C264.588 363.759 287.227 309.941 321.036 272.425Z" fill="url(#paint32_linear_15_3036)"/>
<path d="M333.628 279.059C371.935 236.559 423.885 206.389 481.195 181.654C547.239 153.208 614.969 133.232 682.999 113.594L682.999 112.657C614.594 132.37 546.452 152.421 480.033 181.017C422.723 205.752 370.773 235.959 332.466 278.422C298.694 316.012 276.055 369.793 270.695 421.138C270.021 427.734 269.571 434.367 269.271 441.001L270.433 441.001C270.733 434.555 271.183 428.146 271.857 421.737C277.18 370.393 299.819 316.612 333.628 279.059Z" fill="url(#paint33_linear_15_3036)"/>
<path d="M346.223 285.73C384.53 243.23 436.48 213.06 493.79 188.325C555.748 161.641 619.205 142.414 683 123.938L683 123.001C618.831 141.59 554.961 160.854 492.666 187.725C435.355 212.461 383.405 242.668 345.098 285.13C311.289 322.646 288.65 376.427 283.29 427.771C282.84 432.156 282.503 436.579 282.241 441.001L283.403 441.001C283.665 436.803 284.002 432.568 284.452 428.371C289.812 377.026 312.414 323.245 346.223 285.73Z" fill="url(#paint34_linear_15_3036)"/>
<path d="M358.816 292.364C397.122 249.864 449.073 219.694 506.383 194.958C564.256 169.998 623.44 151.596 682.999 134.207L682.999 133.27C623.065 150.734 563.506 169.249 505.259 194.359C447.948 219.094 395.998 249.301 357.691 291.764C323.882 329.279 301.243 383.098 295.921 434.442C295.696 436.616 295.546 438.827 295.358 441.001L296.558 441.001C296.745 439.015 296.858 437.028 297.083 435.042C302.405 383.697 325.044 329.879 358.816 292.364Z" fill="url(#paint35_linear_15_3036)"/>
<path d="M519.016 201.592C572.803 178.393 627.752 160.891 683.001 144.588L683.001 143.651C627.34 160.067 572.016 177.644 517.854 200.992C460.544 225.728 408.594 255.935 370.287 298.398C336.516 335.913 313.877 389.694 308.517 441.001L309.754 441.001C315.226 389.844 337.79 336.363 371.449 298.997C409.756 256.535 461.706 226.327 519.016 201.592Z" fill="url(#paint36_linear_15_3036)"/>
<path d="M531.611 208.263C581.313 186.826 631.989 170.223 683.002 154.969L683.002 154.033C631.576 169.398 580.526 186.076 530.449 207.663C473.139 232.399 421.189 262.606 382.882 305.069C350.572 340.935 328.495 391.718 321.936 441.001L323.173 441.001C329.807 391.905 351.847 341.422 384.044 305.668C422.351 263.168 474.301 232.999 531.611 208.263Z" fill="url(#paint37_linear_15_3036)"/>
<path d="M544.203 214.897C589.818 195.258 636.221 179.667 682.999 165.426L682.999 164.489C635.847 178.805 589.031 194.471 543.041 214.297C485.73 239.032 433.78 269.24 395.473 311.702C364.588 345.994 343.073 393.854 335.502 441.001L336.739 441.001C344.385 394.041 365.862 346.444 396.598 312.302C434.942 269.839 486.892 239.632 544.203 214.897Z" fill="url(#paint38_linear_15_3036)"/>
<path d="M556.799 221.53C598.292 203.653 640.497 189.112 683.002 175.92L683.002 174.983C640.122 188.287 597.542 202.904 555.675 220.968C498.364 245.703 446.414 275.911 408.107 318.373C378.684 351.016 357.731 396.027 349.26 441.001L350.535 441.001C359.081 396.215 379.958 351.466 409.232 318.973C447.539 276.473 499.489 246.266 556.799 221.53Z" fill="url(#paint39_linear_15_3036)"/>
<path d="M569.43 228.201C606.837 212.086 644.769 198.744 683.038 186.601L683.038 185.626C644.431 197.882 606.087 211.336 568.305 227.602C510.995 252.337 459.045 282.544 420.738 325.007C392.739 356.076 372.423 398.276 363.24 441.001L364.515 441.001C373.773 398.464 394.013 356.526 421.862 325.606C460.169 283.106 512.082 252.937 569.43 228.201Z" fill="url(#paint40_linear_15_3036)"/>
<path d="M582.025 234.835C615.309 220.481 649.043 208.301 683.002 197.245L683.002 196.27C648.631 207.439 614.522 219.731 580.863 234.235C523.553 258.971 471.603 289.178 433.296 331.64C406.796 361.098 387.193 400.562 377.373 441.001L378.647 441.001C388.505 400.787 408.033 361.548 434.458 332.24C472.765 289.778 524.715 259.57 582.025 234.835Z" fill="url(#paint41_linear_15_3036)"/>
<path d="M594.618 241.506C623.779 228.951 653.315 218.082 683.001 208.113L683.001 207.139C652.902 217.183 622.992 228.164 593.456 240.906C536.146 265.642 484.195 295.849 445.888 338.311C420.813 366.158 401.922 402.923 391.614 441.001L392.926 441.001C403.234 403.111 422.087 366.57 447.013 338.911C485.357 296.411 537.307 266.204 594.618 241.506Z" fill="url(#paint42_linear_15_3036)"/>
<path d="M607.212 248.14C632.25 237.346 657.55 227.789 683.001 218.982L683.001 218.007C657.175 226.927 631.5 236.596 606.087 247.54C548.777 272.275 496.827 302.483 458.52 344.945C434.906 371.142 416.765 405.285 406.157 441.001L407.469 441.001C418.114 405.509 436.18 371.592 459.682 345.545C497.951 303.082 549.901 272.875 607.212 248.14Z" fill="url(#paint43_linear_15_3036)"/>
<path d="M619.843 254.773C640.759 245.778 661.824 237.683 683.038 230.113L683.038 229.101C661.449 236.784 639.971 244.991 618.719 254.173C561.409 278.909 509.458 309.116 471.152 351.579C448.962 376.164 431.683 407.721 420.851 441.001L422.2 441.001C433.032 407.945 450.274 376.614 472.276 352.178C510.583 309.716 562.496 279.509 619.843 254.773Z" fill="url(#paint44_linear_15_3036)"/>
<path d="M632.438 261.444C649.192 254.211 666.059 247.54 683.001 241.281L683.001 240.269C665.647 246.64 648.405 253.461 631.276 260.845C573.966 285.58 522.015 315.787 483.709 358.25C463.056 381.186 446.601 410.194 435.694 441.001L437.043 441.001C447.951 410.419 464.33 381.636 484.87 358.849C523.177 316.349 575.09 286.18 632.438 261.444Z" fill="url(#paint45_linear_15_3036)"/>
<path d="M645.03 268.078C657.624 262.644 670.293 257.621 683 252.749L683 251.7C669.918 256.685 656.837 261.894 643.868 267.478C586.558 292.214 534.608 322.421 496.301 364.883C477.148 386.171 461.592 412.668 450.723 441.001L452.072 441.001C462.942 412.893 478.422 386.621 497.463 365.483C535.77 323.02 587.72 292.813 645.03 268.078Z" fill="url(#paint46_linear_15_3036)"/>
<path d="M657.626 274.711C666.059 271.076 674.53 267.591 683.001 264.218L683.001 263.168C674.118 266.691 665.272 270.327 656.464 274.112C599.154 298.847 547.203 329.054 508.897 371.517C491.242 391.118 476.662 415.179 465.979 441.001L467.366 441.001C478.049 415.404 492.517 391.568 510.021 372.154C548.365 329.654 600.316 299.447 657.626 274.711Z" fill="url(#paint47_linear_15_3036)"/>
<path d="M670.219 281.382C674.455 279.546 678.728 277.86 683.001 276.098L683.001 275.011C678.353 276.923 673.705 278.797 669.095 280.783C611.784 305.518 559.834 335.725 521.527 378.188C505.41 396.102 491.842 417.727 481.459 441.001L482.883 441.001C493.228 417.952 506.685 396.552 522.652 378.788C560.959 336.288 612.909 306.118 670.219 281.382Z" fill="url(#paint48_linear_15_3036)"/>
<path d="M682.85 288.016C682.925 287.979 682.962 287.979 683.037 287.941L683.037 286.854C682.588 287.042 682.175 287.229 681.726 287.416C624.415 312.152 572.465 342.359 534.158 384.822C519.578 401.012 507.096 420.238 497.126 441.001L498.588 441.001C508.483 420.501 520.852 401.462 535.32 385.421C573.59 342.959 625.502 312.751 682.85 288.016Z" fill="url(#paint49_linear_15_3036)"/>
<path d="M683 300.16L683 299.035C630.15 322.834 582.51 351.804 546.715 391.456C533.708 405.922 522.351 422.787 513.018 440.964L514.48 440.964C523.775 422.975 535.02 406.335 547.876 392.055C583.372 352.704 630.637 323.883 683 300.16Z" fill="url(#paint50_linear_15_3036)"/>
<path d="M683.001 312.677L683.001 311.515C635.211 334.189 592.219 361.623 559.31 398.089C547.915 410.757 537.795 425.298 529.174 440.964L530.636 440.964C539.182 425.523 549.189 411.207 560.434 398.689C593.118 362.523 635.661 335.276 683.001 312.677Z" fill="url(#paint51_linear_15_3036)"/>
<defs>
<linearGradient id="paint0_linear_15_3036" x1="494.398" y1="-129.039" x2="-217.598" y2="31.008" gradientUnits="userSpaceOnUse">
<stop stop-color="#FFFCFD"/>
<stop offset="1" stop-color="#AFADAE"/>
</linearGradient>
<linearGradient id="paint1_linear_15_3036" x1="507.359" y1="-120.796" x2="-204.635" y2="39.2511" gradientUnits="userSpaceOnUse">
<stop stop-color="#FFFCFD"/>
<stop offset="1" stop-color="#AFADAE"/>
</linearGradient>
<linearGradient id="paint2_linear_15_3036" x1="520.378" y1="-112.292" x2="-191.618" y2="47.7556" gradientUnits="userSpaceOnUse">
<stop stop-color="#FFFCFD"/>
<stop offset="1" stop-color="#AFADAE"/>
</linearGradient>
<linearGradient id="paint3_linear_15_3036" x1="533.462" y1="-103.502" x2="-178.534" y2="56.5458" gradientUnits="userSpaceOnUse">
<stop stop-color="#FFFCFD"/>
<stop offset="1" stop-color="#AFADAE"/>
</linearGradient>
<linearGradient id="paint4_linear_15_3036" x1="546.652" y1="-94.2398" x2="-165.345" y2="65.808" gradientUnits="userSpaceOnUse">
<stop stop-color="#FFFCFD"/>
<stop offset="1" stop-color="#AFADAE"/>
</linearGradient>
<linearGradient id="paint5_linear_15_3036" x1="559.951" y1="-84.4928" x2="-152.046" y2="75.5552" gradientUnits="userSpaceOnUse">
<stop stop-color="#FFFCFD"/>
<stop offset="1" stop-color="#AFADAE"/>
</linearGradient>
<linearGradient id="paint6_linear_15_3036" x1="573.673" y1="-72.8612" x2="-138.322" y2="87.1863" gradientUnits="userSpaceOnUse">
<stop stop-color="#FFFCFD"/>
<stop offset="1" stop-color="#AFADAE"/>
</linearGradient>
<linearGradient id="paint7_linear_15_3036" x1="587.785" y1="-59.497" x2="-124.211" y2="100.551" gradientUnits="userSpaceOnUse">
<stop stop-color="#FFFCFD"/>
<stop offset="1" stop-color="#AFADAE"/>
</linearGradient>
<linearGradient id="paint8_linear_15_3036" x1="602.318" y1="-44.2618" x2="-109.68" y2="115.786" gradientUnits="userSpaceOnUse">
<stop stop-color="#FFFCFD"/>
<stop offset="1" stop-color="#AFADAE"/>
</linearGradient>
<linearGradient id="paint9_linear_15_3036" x1="617.486" y1="-26.1998" x2="-94.5056" y2="133.847" gradientUnits="userSpaceOnUse">
<stop stop-color="#FFFCFD"/>
<stop offset="1" stop-color="#AFADAE"/>
</linearGradient>
<linearGradient id="paint10_linear_15_3036" x1="692.994" y1="262.441" x2="-18.5193" y2="422.38" gradientUnits="userSpaceOnUse">
<stop stop-color="#FFFCFD"/>
<stop offset="1" stop-color="#AFADAE"/>
</linearGradient>
<linearGradient id="paint11_linear_15_3036" x1="634.018" y1="-2.0661" x2="-77.9716" y2="157.98" gradientUnits="userSpaceOnUse">
<stop stop-color="#FFFCFD"/>
<stop offset="1" stop-color="#AFADAE"/>
</linearGradient>
<linearGradient id="paint12_linear_15_3036" x1="667.182" y1="96.0518" x2="-44.8056" y2="256.098" gradientUnits="userSpaceOnUse">
<stop stop-color="#FFFCFD"/>
<stop offset="1" stop-color="#AFADAE"/>
</linearGradient>
<linearGradient id="paint13_linear_15_3036" x1="679.038" y1="99.3803" x2="-32.9492" y2="259.426" gradientUnits="userSpaceOnUse">
<stop stop-color="#FFFCFD"/>
<stop offset="1" stop-color="#AFADAE"/>
</linearGradient>
<linearGradient id="paint14_linear_15_3036" x1="690.895" y1="102.715" x2="-21.0947" y2="262.761" gradientUnits="userSpaceOnUse">
<stop stop-color="#FFFCFD"/>
<stop offset="1" stop-color="#AFADAE"/>
</linearGradient>
<linearGradient id="paint15_linear_15_3036" x1="702.756" y1="106.054" x2="-9.23508" y2="266.101" gradientUnits="userSpaceOnUse">
<stop stop-color="#FFFCFD"/>
<stop offset="1" stop-color="#AFADAE"/>
</linearGradient>
<linearGradient id="paint16_linear_15_3036" x1="714.616" y1="109.403" x2="2.62977" y2="269.448" gradientUnits="userSpaceOnUse">
<stop stop-color="#FFFCFD"/>
<stop offset="1" stop-color="#AFADAE"/>
</linearGradient>
<linearGradient id="paint17_linear_15_3036" x1="726.54" y1="113.034" x2="14.5501" y2="273.08" gradientUnits="userSpaceOnUse">
<stop stop-color="#FFFCFD"/>
<stop offset="1" stop-color="#AFADAE"/>
</linearGradient>
<linearGradient id="paint18_linear_15_3036" x1="738.629" y1="117.403" x2="26.642" y2="277.449" gradientUnits="userSpaceOnUse">
<stop stop-color="#FFFCFD"/>
<stop offset="1" stop-color="#AFADAE"/>
</linearGradient>
<linearGradient id="paint19_linear_15_3036" x1="750.709" y1="121.733" x2="38.7234" y2="281.779" gradientUnits="userSpaceOnUse">
<stop stop-color="#FFFCFD"/>
<stop offset="1" stop-color="#AFADAE"/>
</linearGradient>
<linearGradient id="paint20_linear_15_3036" x1="762.767" y1="125.951" x2="50.7769" y2="285.998" gradientUnits="userSpaceOnUse">
<stop stop-color="#FFFCFD"/>
<stop offset="1" stop-color="#AFADAE"/>
</linearGradient>
<linearGradient id="paint21_linear_15_3036" x1="774.816" y1="130.145" x2="62.8272" y2="290.191" gradientUnits="userSpaceOnUse">
<stop stop-color="#FFFCFD"/>
<stop offset="1" stop-color="#AFADAE"/>
</linearGradient>
<linearGradient id="paint22_linear_15_3036" x1="786.845" y1="134.24" x2="74.8547" y2="294.286" gradientUnits="userSpaceOnUse">
<stop stop-color="#FFFCFD"/>
<stop offset="1" stop-color="#AFADAE"/>
</linearGradient>
<linearGradient id="paint23_linear_15_3036" x1="798.871" y1="138.324" x2="86.8828" y2="298.37" gradientUnits="userSpaceOnUse">
<stop stop-color="#FFFCFD"/>
<stop offset="1" stop-color="#AFADAE"/>
</linearGradient>
<linearGradient id="paint24_linear_15_3036" x1="810.878" y1="142.323" x2="98.8886" y2="302.369" gradientUnits="userSpaceOnUse">
<stop stop-color="#FFFCFD"/>
<stop offset="1" stop-color="#AFADAE"/>
</linearGradient>
<linearGradient id="paint25_linear_15_3036" x1="822.884" y1="146.321" x2="110.894" y2="306.367" gradientUnits="userSpaceOnUse">
<stop stop-color="#FFFCFD"/>
<stop offset="1" stop-color="#AFADAE"/>
</linearGradient>
<linearGradient id="paint26_linear_15_3036" x1="834.875" y1="150.253" x2="122.889" y2="310.298" gradientUnits="userSpaceOnUse">
<stop stop-color="#FFFCFD"/>
<stop offset="1" stop-color="#AFADAE"/>
</linearGradient>
<linearGradient id="paint27_linear_15_3036" x1="846.867" y1="154.187" x2="134.879" y2="314.233" gradientUnits="userSpaceOnUse">
<stop stop-color="#FFFCFD"/>
<stop offset="1" stop-color="#AFADAE"/>
</linearGradient>
<linearGradient id="paint28_linear_15_3036" x1="858.849" y1="158.078" x2="146.862" y2="318.123" gradientUnits="userSpaceOnUse">
<stop stop-color="#FFFCFD"/>
<stop offset="1" stop-color="#AFADAE"/>
</linearGradient>
<linearGradient id="paint29_linear_15_3036" x1="870.832" y1="161.971" x2="158.842" y2="322.017" gradientUnits="userSpaceOnUse">
<stop stop-color="#FFFCFD"/>
<stop offset="1" stop-color="#AFADAE"/>
</linearGradient>
<linearGradient id="paint30_linear_15_3036" x1="882.81" y1="165.847" x2="170.822" y2="325.892" gradientUnits="userSpaceOnUse">
<stop stop-color="#FFFCFD"/>
<stop offset="1" stop-color="#AFADAE"/>
</linearGradient>
<linearGradient id="paint31_linear_15_3036" x1="894.79" y1="169.727" x2="182.802" y2="329.773" gradientUnits="userSpaceOnUse">
<stop stop-color="#FFFCFD"/>
<stop offset="1" stop-color="#AFADAE"/>
</linearGradient>
<linearGradient id="paint32_linear_15_3036" x1="906.771" y1="173.609" x2="194.782" y2="333.655" gradientUnits="userSpaceOnUse">
<stop stop-color="#FFFCFD"/>
<stop offset="1" stop-color="#AFADAE"/>
</linearGradient>
<linearGradient id="paint33_linear_15_3036" x1="918.753" y1="177.502" x2="206.765" y2="337.548" gradientUnits="userSpaceOnUse">
<stop stop-color="#FFFCFD"/>
<stop offset="1" stop-color="#AFADAE"/>
</linearGradient>
<linearGradient id="paint34_linear_15_3036" x1="930.741" y1="181.414" x2="218.753" y2="341.46" gradientUnits="userSpaceOnUse">
<stop stop-color="#FFFCFD"/>
<stop offset="1" stop-color="#AFADAE"/>
</linearGradient>
<linearGradient id="paint35_linear_15_3036" x1="942.731" y1="185.345" x2="230.743" y2="345.391" gradientUnits="userSpaceOnUse">
<stop stop-color="#FFFCFD"/>
<stop offset="1" stop-color="#AFADAE"/>
</linearGradient>
<linearGradient id="paint36_linear_15_3036" x1="954.733" y1="189.315" x2="242.744" y2="349.361" gradientUnits="userSpaceOnUse">
<stop stop-color="#FFFCFD"/>
<stop offset="1" stop-color="#AFADAE"/>
</linearGradient>
<linearGradient id="paint37_linear_15_3036" x1="966.739" y1="193.308" x2="254.751" y2="353.354" gradientUnits="userSpaceOnUse">
<stop stop-color="#FFFCFD"/>
<stop offset="1" stop-color="#AFADAE"/>
</linearGradient>
<linearGradient id="paint38_linear_15_3036" x1="978.758" y1="197.375" x2="266.769" y2="357.421" gradientUnits="userSpaceOnUse">
<stop stop-color="#FFFCFD"/>
<stop offset="1" stop-color="#AFADAE"/>
</linearGradient>
<linearGradient id="paint39_linear_15_3036" x1="990.787" y1="201.46" x2="278.798" y2="361.506" gradientUnits="userSpaceOnUse">
<stop stop-color="#FFFCFD"/>
<stop offset="1" stop-color="#AFADAE"/>
</linearGradient>
<linearGradient id="paint40_linear_15_3036" x1="1002.83" y1="205.641" x2="290.844" y2="365.688" gradientUnits="userSpaceOnUse">
<stop stop-color="#FFFCFD"/>
<stop offset="1" stop-color="#AFADAE"/>
</linearGradient>
<linearGradient id="paint41_linear_15_3036" x1="1014.89" y1="209.851" x2="302.899" y2="369.897" gradientUnits="userSpaceOnUse">
<stop stop-color="#FFFCFD"/>
<stop offset="1" stop-color="#AFADAE"/>
</linearGradient>
<linearGradient id="paint42_linear_15_3036" x1="1026.97" y1="214.17" x2="314.979" y2="374.216" gradientUnits="userSpaceOnUse">
<stop stop-color="#FFFCFD"/>
<stop offset="1" stop-color="#AFADAE"/>
</linearGradient>
<linearGradient id="paint43_linear_15_3036" x1="1039.05" y1="218.52" x2="327.065" y2="378.566" gradientUnits="userSpaceOnUse">
<stop stop-color="#FFFCFD"/>
<stop offset="1" stop-color="#AFADAE"/>
</linearGradient>
<linearGradient id="paint44_linear_15_3036" x1="1051.17" y1="223.011" x2="339.182" y2="383.056" gradientUnits="userSpaceOnUse">
<stop stop-color="#FFFCFD"/>
<stop offset="1" stop-color="#AFADAE"/>
</linearGradient>
<linearGradient id="paint45_linear_15_3036" x1="1063.29" y1="227.532" x2="351.306" y2="387.578" gradientUnits="userSpaceOnUse">
<stop stop-color="#FFFCFD"/>
<stop offset="1" stop-color="#AFADAE"/>
</linearGradient>
<linearGradient id="paint46_linear_15_3036" x1="1075.45" y1="232.209" x2="363.464" y2="392.254" gradientUnits="userSpaceOnUse">
<stop stop-color="#FFFCFD"/>
<stop offset="1" stop-color="#AFADAE"/>
</linearGradient>
<linearGradient id="paint47_linear_15_3036" x1="1087.62" y1="236.935" x2="375.633" y2="396.981" gradientUnits="userSpaceOnUse">
<stop stop-color="#FFFCFD"/>
<stop offset="1" stop-color="#AFADAE"/>
</linearGradient>
<linearGradient id="paint48_linear_15_3036" x1="1099.83" y1="241.841" x2="387.845" y2="401.887" gradientUnits="userSpaceOnUse">
<stop stop-color="#FFFCFD"/>
<stop offset="1" stop-color="#AFADAE"/>
</linearGradient>
<linearGradient id="paint49_linear_15_3036" x1="1112.05" y1="246.789" x2="400.064" y2="406.835" gradientUnits="userSpaceOnUse">
<stop stop-color="#FFFCFD"/>
<stop offset="1" stop-color="#AFADAE"/>
</linearGradient>
<linearGradient id="paint50_linear_15_3036" x1="1124.31" y1="251.909" x2="412.322" y2="411.954" gradientUnits="userSpaceOnUse">
<stop stop-color="#FFFCFD"/>
<stop offset="1" stop-color="#AFADAE"/>
</linearGradient>
<linearGradient id="paint51_linear_15_3036" x1="1136.61" y1="257.209" x2="424.623" y2="417.254" gradientUnits="userSpaceOnUse">
<stop stop-color="#FFFCFD"/>
<stop offset="1" stop-color="#AFADAE"/>
</linearGradient>
</defs>
</svg>
