<svg width="24" height="23" viewBox="0 0 24 23" fill="none" xmlns="http://www.w3.org/2000/svg">
<path d="M10.4766 5.98316L9.76117 5.75812L10.4766 5.98316ZM8.35702 9.54025L8.80722 8.9404L8.35702 9.54025ZM8.85739 11.131L9.57283 11.3561L8.85739 11.131ZM10.977 12.7218L10.5268 12.122L10.977 12.7218ZM12.5962 12.7218L13.0464 12.122L12.5962 12.7218ZM14.7158 11.131L14.0004 11.3561L14.7158 11.131ZM15.2162 9.54025L14.766 8.9404L15.2162 9.54025ZM13.0966 5.98316L13.812 5.75812L13.0966 5.98316ZM9.65947 17.831L9.00995 17.456L9.65947 17.831ZM7.90291 20.8734L8.55243 21.2484L7.90291 20.8734ZM1.61702 17.2443L0.967497 16.8693H0.967497L1.61702 17.2443ZM3.37357 14.2018L4.02309 14.5768H4.02309L3.37357 14.2018ZM6.01952 20.7121L5.30983 20.9547L5.30984 20.9547L6.01952 20.7121ZM5.77567 19.9988L6.48535 19.7562L6.48535 19.7562L5.77567 19.9988ZM3.43807 18.6492L3.29332 17.9133H3.29332L3.43807 18.6492ZM2.69839 18.7947L2.84313 19.5306H2.84313L2.69839 18.7947ZM5.02864 18.5935L5.40364 17.944H5.40364L5.02864 18.5935ZM1.0643 18.8052L0.449145 19.2343L1.0643 18.8052ZM4.41964 12.6437L4.08636 11.9718L3.99237 12.0185L3.91478 12.0891L4.41964 12.6437ZM10.1667 16.9319L9.5675 16.4808L9.5315 16.5287L9.50354 16.5816L10.1667 16.9319ZM13.6354 17.831L14.2849 17.456L13.6354 17.831ZM15.392 20.8734L16.0415 20.4984L15.392 20.8734ZM21.6779 17.2443L22.3274 16.8693L21.6779 17.2443ZM19.9213 14.2018L19.2718 14.5768L19.9213 14.2018ZM17.2754 20.7121L17.985 20.9547V20.9547L17.2754 20.7121ZM17.5192 19.9988L16.8095 19.7562V19.7562L17.5192 19.9988ZM19.8568 18.6492L20.0016 17.9133L19.8568 18.6492ZM20.5965 18.7947L20.4517 19.5306L20.5965 18.7947ZM22.2306 18.8052L22.8457 19.2343V19.2343L22.2306 18.8052ZM13.1239 16.9237H12.3739V17.1092L12.4603 17.2733L13.1239 16.9237ZM10.2294 16.8485L10.3746 16.1127L10.2294 16.8485ZM13.1239 16.8887L12.9994 16.1491L13.1239 16.8887ZM18.8991 12.6659L18.2327 12.3217L18.8991 12.6659ZM4.5366 9C4.5366 4.99594 7.78253 1.75 11.7866 1.75V0.25C6.95411 0.25 3.0366 4.16751 3.0366 9H4.5366ZM11.7866 1.75C15.7907 1.75 19.0366 4.99594 19.0366 9H20.5366C20.5366 4.16751 16.6191 0.25 11.7866 0.25V1.75ZM9.16663 7.71631C10.1042 7.71631 10.9134 7.09399 11.1921 6.20819L9.76117 5.75812C9.671 6.0448 9.42253 6.21631 9.16663 6.21631V7.71631ZM8.80722 8.9404C8.55588 8.75176 8.48355 8.45601 8.57209 8.17451C8.6601 7.89471 8.87657 7.71631 9.16663 7.71631V6.21631C7.05757 6.21631 6.2945 8.93003 7.90682 10.1401L8.80722 8.9404ZM9.57283 11.3561C9.85031 10.4739 9.55056 9.49829 8.80722 8.9404L7.90682 10.1401C8.129 10.3068 8.23327 10.6157 8.14195 10.906L9.57283 11.3561ZM10.5268 12.122C10.2842 12.304 10.0194 12.2807 9.80795 12.122C9.59299 11.9606 9.47039 11.6818 9.57283 11.3561L8.14195 10.906C7.83206 11.8912 8.22952 12.8128 8.90756 13.3217C9.58911 13.8332 10.5903 13.9498 11.4272 13.3217L10.5268 12.122ZM13.0464 12.122C12.2969 11.5594 11.2763 11.5594 10.5268 12.122L11.4272 13.3217C11.6432 13.1595 11.93 13.1595 12.146 13.3217L13.0464 12.122ZM14.0004 11.3561C14.1028 11.6818 13.9802 11.9606 13.7652 12.122C13.5538 12.2807 13.289 12.304 13.0464 12.122L12.146 13.3217C12.9829 13.9498 13.9841 13.8332 14.6656 13.3217C15.3437 12.8128 15.7411 11.8912 15.4312 10.906L14.0004 11.3561ZM14.766 8.9404C14.0226 9.49828 13.7229 10.4739 14.0004 11.3561L15.4312 10.906C15.3399 10.6157 15.4442 10.3068 15.6664 10.1401L14.766 8.9404ZM14.4066 7.71631C14.6966 7.71631 14.9131 7.89471 15.0011 8.17451C15.0896 8.45601 15.0173 8.75176 14.766 8.9404L15.6664 10.1401C17.2787 8.93003 16.5156 6.21631 14.4066 6.21631V7.71631ZM12.3811 6.20819C12.6598 7.09399 13.469 7.71631 14.4066 7.71631V6.21631C14.1507 6.21631 13.9022 6.0448 13.812 5.75812L12.3811 6.20819ZM13.812 5.75812C13.1795 3.74729 10.3937 3.74729 9.76117 5.75812L11.1921 6.20819C11.3842 5.59727 12.189 5.59727 12.3811 6.20819L13.812 5.75812ZM9.00995 17.456L7.2534 20.4984L8.55243 21.2484L10.309 18.206L9.00995 17.456ZM2.26653 17.6193L4.02309 14.5768L2.72405 13.8268L0.967497 16.8693L2.26653 17.6193ZM6.7292 20.4696L6.48535 19.7562L5.06599 20.2414L5.30983 20.9547L6.7292 20.4696ZM3.29332 17.9133L2.55365 18.0588L2.84313 19.5306L3.58281 19.3851L3.29332 17.9133ZM6.48535 19.7562C6.3534 19.3702 6.23301 19.0137 6.09673 18.7351C5.95134 18.4379 5.7486 18.1431 5.40364 17.944L4.65364 19.243C4.65492 19.2437 4.65542 19.2441 4.65629 19.2449C4.65733 19.2458 4.6613 19.2493 4.66821 19.2576C4.68325 19.2759 4.71046 19.3148 4.7493 19.3942C4.83435 19.5681 4.92138 19.8184 5.06599 20.2414L6.48535 19.7562ZM3.58281 19.3851C4.02147 19.2988 4.28174 19.2491 4.47484 19.2358C4.56303 19.2297 4.61038 19.2338 4.63369 19.2377C4.64439 19.2395 4.64942 19.2412 4.65071 19.2416C4.65179 19.242 4.65237 19.2423 4.65364 19.243L5.40364 17.944C5.05869 17.7448 4.70202 17.7166 4.37193 17.7393C4.06252 17.7606 3.69359 17.8346 3.29332 17.9133L3.58281 19.3851ZM0.967497 16.8693C0.732194 17.2768 0.512271 17.654 0.38749 17.9642C0.269756 18.2569 0.121484 18.7645 0.449145 19.2343L1.67945 18.3762C1.81645 18.5726 1.69673 18.7289 1.77913 18.524C1.85448 18.3367 2.00625 18.0701 2.26653 17.6193L0.967497 16.8693ZM2.55365 18.0588C2.04733 18.1584 1.7514 18.2146 1.55475 18.2244C1.3416 18.235 1.53831 18.1738 1.67945 18.3762L0.449145 19.2343C0.780957 19.71 1.31358 19.7382 1.62924 19.7225C1.96139 19.706 2.38718 19.6203 2.84313 19.5306L2.55365 18.0588ZM7.2534 20.4984C6.99311 20.9493 6.83812 21.214 6.71357 21.3729C6.57737 21.5467 6.65284 21.3649 6.89143 21.3853L6.76345 22.8798C7.33413 22.9287 7.69954 22.5465 7.89416 22.2982C8.10043 22.035 8.31713 21.656 8.55243 21.2484L7.2534 20.4984ZM5.30984 20.9547C5.46015 21.3945 5.59879 21.8061 5.75057 22.102C5.89481 22.3832 6.18555 22.8304 6.76345 22.8798L6.89143 21.3853C7.13725 21.4064 7.18264 21.6073 7.08525 21.4174C6.99539 21.2422 6.89611 20.9578 6.7292 20.4695L5.30984 20.9547ZM4.02309 14.5768C4.54334 13.6757 4.72381 13.381 4.9245 13.1984L3.91478 12.0891C3.49793 12.4685 3.18686 13.0252 2.72405 13.8268L4.02309 14.5768ZM10.309 18.206C10.519 17.8422 10.6939 17.5396 10.8298 17.2823L9.50354 16.5816C9.38374 16.8083 9.22524 17.0831 9.00995 17.456L10.309 18.206ZM12.9859 18.206L14.7424 21.2484L16.0415 20.4984L14.2849 17.456L12.9859 18.206ZM22.3274 16.8693L20.5708 13.8268L19.2718 14.5768L21.0283 17.6193L22.3274 16.8693ZM17.985 20.9547L18.2289 20.2414L16.8095 19.7562L16.5657 20.4696L17.985 20.9547ZM19.7121 19.3851L20.4517 19.5306L20.7412 18.0588L20.0016 17.9133L19.7121 19.3851ZM18.2289 20.2414C18.3735 19.8184 18.4605 19.5681 18.5456 19.3942C18.5844 19.3148 18.6116 19.2759 18.6267 19.2576C18.6336 19.2493 18.6375 19.2458 18.6386 19.2449C18.6395 19.2441 18.64 19.2437 18.6412 19.243L17.8912 17.944C17.5463 18.1431 17.3435 18.4379 17.1981 18.7351C17.0619 19.0137 16.9415 19.3702 16.8095 19.7562L18.2289 20.2414ZM20.0016 17.9133C19.6013 17.8346 19.2324 17.7606 18.9229 17.7393C18.5929 17.7166 18.2362 17.7448 17.8912 17.944L18.6412 19.243C18.6425 19.2423 18.6431 19.242 18.6442 19.2416C18.6455 19.2412 18.6505 19.2395 18.6612 19.2377C18.6845 19.2338 18.7318 19.2297 18.82 19.2358C19.0131 19.2491 19.2734 19.2988 19.7121 19.3851L20.0016 17.9133ZM21.0283 17.6193C21.2886 18.0701 21.4404 18.3367 21.5157 18.524C21.5981 18.7288 21.4784 18.5726 21.6154 18.3762L22.8457 19.2343C23.1734 18.7645 23.0251 18.2569 22.9074 17.9642C22.7826 17.654 22.5627 17.2768 22.3274 16.8693L21.0283 17.6193ZM20.4517 19.5306C20.9077 19.6203 21.3335 19.706 21.6656 19.7225C21.9813 19.7382 22.5139 19.71 22.8457 19.2343L21.6154 18.3762C21.7566 18.1738 21.9533 18.235 21.7401 18.2244C21.5435 18.2146 21.2476 18.1584 20.7412 18.0588L20.4517 19.5306ZM14.7424 21.2484C14.9777 21.656 15.1944 22.035 15.4007 22.2982C15.5953 22.5465 15.9607 22.9287 16.5314 22.8798L16.4034 21.3853C16.642 21.3649 16.7175 21.5467 16.5813 21.3729C16.4568 21.214 16.3018 20.9493 16.0415 20.4984L14.7424 21.2484ZM16.5657 20.4695C16.3988 20.9578 16.2995 21.2422 16.2096 21.4174C16.1122 21.6073 16.1576 21.4064 16.4034 21.3853L16.5314 22.8798C17.1093 22.8304 17.4001 22.3832 17.5443 22.102C17.6961 21.8061 17.8347 21.3945 17.985 20.9547L16.5657 20.4695ZM14.2849 17.456C14.0671 17.0788 13.9075 16.802 13.7874 16.574L12.4603 17.2733C12.5971 17.5328 12.7735 17.8381 12.9859 18.206L14.2849 17.456ZM5.28609 12.2143C4.80652 11.2465 4.5366 10.1558 4.5366 9H3.0366C3.0366 10.392 3.36218 11.7101 3.94204 12.8803L5.28609 12.2143ZM4.75293 13.3156L4.94735 13.2192L4.28078 11.8754L4.08636 11.9718L4.75293 13.3156ZM11.7866 16.25C11.3028 16.25 10.8307 16.2027 10.3746 16.1127L10.0843 17.5844C10.6355 17.6931 11.2048 17.75 11.7866 17.75V16.25ZM10.3746 16.1127C8.1395 15.6718 6.27077 14.2015 5.28609 12.2143L3.94204 12.8803C5.12922 15.2761 7.38201 17.0513 10.0843 17.5844L10.3746 16.1127ZM10.7659 17.383L10.8286 17.2996L9.63026 16.3975L9.5675 16.4808L10.7659 17.383ZM12.9994 16.1491C12.6055 16.2154 12.2004 16.25 11.7866 16.25V17.75C12.2841 17.75 12.7725 17.7084 13.2483 17.6283L12.9994 16.1491ZM13.8739 16.9237V16.8887H12.3739V16.9237H13.8739ZM19.0366 9C19.0366 10.1987 18.7463 11.3274 18.2327 12.3217L19.5655 13.01C20.1863 11.8079 20.5366 10.4438 20.5366 9H19.0366ZM18.2327 12.3217C17.2045 14.3128 15.2816 15.7651 12.9994 16.1491L13.2483 17.6283C16.0077 17.164 18.326 15.41 19.5655 13.01L18.2327 12.3217ZM20.5708 13.8268C20.1191 13.0445 19.8118 12.4962 19.4141 12.1206L18.3841 13.2111C18.5821 13.3981 18.7659 13.7006 19.2718 14.5768L20.5708 13.8268Z" fill="#DA251E"/>
</svg>
