<svg width="23" height="22" viewBox="0 0 23 22" fill="none" xmlns="http://www.w3.org/2000/svg">
<path d="M13.4399 6.59754C13.7467 7.50349 14.6269 8.11686 15.62 8.11686M4.97404 5.76892C6.46903 5.76892 7.79399 4.80628 8.25597 3.38446C9.28898 0.20518 13.7868 0.20518 14.8198 3.38446C15.2818 4.80628 16.6068 5.76892 18.1017 5.76892C21.4446 5.76892 22.8345 10.0466 20.1301 12.0115C18.9206 12.8902 18.4145 14.4478 18.8765 15.8697C19.9095 19.0489 16.2707 21.6927 13.5662 19.7278C12.3568 18.8491 10.719 18.8491 9.50955 19.7278C6.80509 21.6927 3.16627 19.0489 4.19928 15.8697C4.66126 14.4478 4.15517 12.8902 2.9457 12.0115C0.241239 10.0466 1.63115 5.76892 4.97404 5.76892Z" stroke="#DA251E" stroke-width="1.5" stroke-linecap="round"/>
</svg>
