<svg width="21" height="17" viewBox="0 0 21 17" fill="none" xmlns="http://www.w3.org/2000/svg">
<path d="M7.33333 1C6.21914 1 5.10494 1.32258 4.16667 1.96774L1.84444 3.56452C1.31285 3.93004 1 4.5037 1 5.1129V13.4636C1 15.0071 2.92199 15.8881 4.26882 14.962C5.17682 14.3377 6.25508 14.0255 7.33333 14.0255M7.33333 1C8.44753 1 9.56173 1.32258 10.5 1.96774L10.6022 2.03798C11.5102 2.66233 12.5884 2.97451 13.6667 2.97451M7.33333 1V1.72581V13.3387V14.0255M13.6667 2.97451C14.7449 2.97451 15.8232 2.66233 16.7312 2.03798C18.078 1.1119 20 1.99294 20 3.53642V11.8871C20 12.4963 19.6871 13.07 19.1556 13.4355L16.8333 15.0323C15.8951 15.6774 14.7809 16 13.6667 16M13.6667 2.97451V3.66129V15.2742V16M13.6667 16C12.5525 16 11.4383 15.6774 10.5 15.0323L10.3978 14.962C9.48984 14.3377 8.41159 14.0255 7.33333 14.0255" stroke="#DA251E" stroke-width="1.5" stroke-linecap="round"/>
<path d="M9.79304 7.79289L11.2073 9.20711M11.2073 7.79289L9.79304 9.20711" stroke="#DA251E" stroke-linecap="round"/>
</svg>
